# xmcd
#
# Track frame offsets: 
#        150
#        33385
#        55788
#        83755
#        115777
#        144083
#        169325
#        206390
#
# Disc length: 3152 seconds
#
# Revision: 0
# Processed by: cddbd v1.5.2PL0 Copyright (c) Steve Scherf et al.
# Submitted via: ExactAudioCopy v0.95b3
#
DISCID=5f0c4e08
DTITLE=Mike Nesmith  - Live at the Palais
DYEAR=1900
DGENRE=
TTITLE0=Michael Nesmith - Grand Ennui
TTITLE1=Michael Nesmith - Calico Girlfriend
TTITLE2=Michael Nesmith - Propinquity
TTITLE3=Michael Nesmith - Joanne
TTITLE4=Michael Nesmith - Roll with the Flow
TTITLE5=Michael Nesmith - Some of Shelly's Blues
TTITLE6=Michael Nesmith - Silver Moon
TTITLE7=Michael Nesmith - Nadine Is That You
EXTD=
EXTT0=
EXTT1=
EXTT2=
EXTT3=
EXTT4=
EXTT5=
EXTT6=
EXTT7=
PLAYORDER=
